<svg width="24" height="24" viewBox="0 0 24 24" fill="none" xmlns="http://www.w3.org/2000/svg">
<path d="M9.71 10.46H11.949C12.1535 10.46 12.3496 10.3788 12.4942 10.2342C12.6388 10.0896 12.72 9.89348 12.72 9.689C12.72 9.48452 12.6388 9.28841 12.4942 9.14382C12.3496 8.99923 12.1535 8.918 11.949 8.918H9.71C9.50552 8.918 9.30941 8.99923 9.16482 9.14382C9.02023 9.28841 8.939 9.48452 8.939 9.689C8.939 9.89348 9.02023 10.0896 9.16482 10.2342C9.30941 10.3788 9.50552 10.46 9.71 10.46ZM19.428 2.002H4.555C3.87606 2.00463 3.22568 2.27551 2.74559 2.75559C2.26551 3.23568 1.99463 3.88606 1.992 4.565V19.438C1.99437 20.1171 2.26513 20.7677 2.74524 21.248C3.22536 21.7284 3.87589 21.9994 4.555 22.002H19.428C20.1073 21.9996 20.7581 21.7287 21.2384 21.2484C21.7187 20.7681 21.9896 20.1173 21.992 19.438V4.565C21.9894 3.88589 21.7184 3.23536 21.238 2.75524C20.7577 2.27513 20.1071 2.00437 19.428 2.002ZM18.356 11.68L18.336 14.355C18.3284 15.4221 17.9 16.4431 17.1439 17.1962C16.3878 17.9493 15.3651 18.3736 14.298 18.377H9.658C8.58975 18.3746 7.56569 17.9503 6.80883 17.1965C6.05196 16.4426 5.62359 15.4202 5.617 14.352V9.657C5.62306 8.58797 6.05124 7.56463 6.80829 6.80982C7.56535 6.05502 8.58996 5.62988 9.659 5.627H12.482C13.1325 5.73993 13.7497 5.99585 14.2893 6.3763C14.8288 6.75675 15.2772 7.25224 15.602 7.827C15.8245 8.24942 15.9483 8.71682 15.964 9.194C16.032 9.7 16.067 10.075 16.294 10.284C16.614 10.573 17.802 10.378 18.037 10.562L18.215 10.702L18.325 10.923L18.36 11.101L18.356 11.68ZM14.259 13.543H9.71C9.51109 13.543 9.32032 13.622 9.17967 13.7627C9.03902 13.9033 8.96 14.0941 8.96 14.293C8.96 14.4919 9.03902 14.6827 9.17967 14.8233C9.32032 14.964 9.51109 15.043 9.71 15.043H14.259C14.4579 15.043 14.6487 14.964 14.7893 14.8233C14.93 14.6827 15.009 14.4919 15.009 14.293C15.009 14.0941 14.93 13.9033 14.7893 13.7627C14.6487 13.622 14.4579 13.543 14.259 13.543Z" 
fill="#fff"/>
</svg>
